<svg width="120" height="24" viewBox="0 0 120 24" fill="none" xmlns="http://www.w3.org/2000/svg">
<g clip-path="url(#clip0_1109_5791)">
<path d="M42.5099 16.5701H36.5099L35.5099 19.1101H32.8999L38.3599 6.31006H40.9999L46.2899 19.1101H43.5099L42.5099 16.5701ZM41.7499 14.5701L39.5599 9.00006L37.3199 14.6001L41.7499 14.5701Z" fill="white"/>
<path d="M60.51 12.8801V18.5301C58.9311 19.1392 57.2523 19.4478 55.56 19.4401C51.45 19.4401 48.73 17.0101 48.73 12.6501C48.73 8.29006 51.6 6.00006 55.73 6.00006C57.1317 5.99591 58.5253 6.21187 59.86 6.64006L60.24 9.00006C58.8175 8.37183 57.2846 8.03194 55.73 8.00006C53.14 8.00006 51.37 9.33006 51.37 12.5901C51.37 15.8501 53.11 17.3601 55.65 17.3601C56.4406 17.3732 57.2298 17.2893 58 17.1101V12.8801H60.51Z" fill="white"/>
<path d="M74.8499 17.0701L74.5599 19.0701H64.9199V6.31006H74.4099L74.7199 8.31006H67.4899V11.5301H72.8299V13.5301H67.4899V17.0201L74.8499 17.0701Z" fill="white"/>
<path d="M90.58 6.31006V19.1101H86.84L81.27 8.79006V19.1101H79V6.31006H82.67L88.32 16.7201V6.31006H90.58Z" fill="white"/>
<path d="M101.51 6.00001C102.793 5.96787 104.07 6.18523 105.27 6.64001L105.66 9.00001C104.415 8.38091 103.05 8.03971 101.66 8.00001C99.4002 8.00001 97.5302 9.33001 97.5302 12.61C97.5302 15.89 99.3802 17.36 101.66 17.36C103.038 17.3552 104.4 17.0659 105.66 16.51L105.31 18.63C104.118 19.1914 102.807 19.4556 101.49 19.4C97.6302 19.4 94.8902 16.99 94.8902 12.63C94.8395 11.7469 94.976 10.8631 95.2906 10.0364C95.6052 9.20977 96.0909 8.45888 96.7159 7.83296C97.3409 7.20703 98.091 6.72019 98.9172 6.40432C99.7434 6.08845 100.627 5.95067 101.51 6.00001Z" fill="white"/>
<path d="M120 17.0701L119.71 19.0701H110.07V6.31006H119.56L119.86 8.31006H112.63V11.5301H118V13.5301H112.66V17.0201L120 17.0701Z" fill="white"/>
<path d="M13.3898 10.1301L7.57978 0.0700696C7.78712 0.0270529 7.99805 0.00361655 8.20977 6.96493e-05H18.5598C19.0938 -0.00356857 19.619 0.135389 20.0814 0.402595C20.5437 0.669801 20.9263 1.05557 21.1898 1.52007L23.1898 5.02007H16.3298L13.3898 10.1301ZM10.3898 18.9801H3.55978L5.55978 22.4801C5.82485 22.9476 6.21064 23.3353 6.67681 23.6026C7.14297 23.87 7.67241 24.0073 8.20977 24.0001H18.5598C18.7716 23.9976 18.9826 23.9742 19.1898 23.9301L13.3898 13.8701L10.3898 18.9801ZM26.3198 10.4801L24.2998 6.90007H18.4998L21.6798 12.4101L20.5998 14.2901L16.8698 7.84007L14.4698 12.0001L20.8098 23.0001C20.953 22.843 21.0802 22.6722 21.1898 22.4901L26.3698 13.4901C26.6301 13.0312 26.767 12.5126 26.767 11.9851C26.767 11.4575 26.6301 10.9389 26.3698 10.4801H26.3198ZM5.08978 11.5901L6.17978 9.71007L9.89977 16.1601L12.2998 12.0001L5.99978 1.00007C5.85659 1.15711 5.7293 1.32795 5.61978 1.51007L0.449775 10.5101C0.18647 10.9661 0.0478516 11.4835 0.0478516 12.0101C0.0478516 12.5367 0.18647 13.054 0.449775 13.5101L2.47978 17.1001H8.27977L5.08978 11.5901Z" fill="#73DCFF"/>
</g>
<defs>
<clipPath id="clip0_1109_5791">
<rect width="120" height="24" fill="white"/>
</clipPath>
</defs>
</svg>
